<svg width="1849" height="849" viewBox="0 0 1849 849" fill="none" xmlns="http://www.w3.org/2000/svg">
<path d="M996.641 417.272H1270.19C1270.19 417.272 1256.6 399.57 1241.61 397.358C1241.61 397.358 1212.45 310.527 1163.63 309.92C1118.23 309.349 1100.03 363.311 1100.03 363.311C1100.03 363.311 1079.01 339.114 1058.92 350.177C1038.82 361.241 1027.44 392.932 1027.44 392.932C1027.44 392.932 1004.85 405.102 996.641 417.272Z" fill="#E1EBFF"/>
<path d="M357.599 341.469H543.394C543.394 341.469 534.151 329.442 523.979 327.943C523.979 327.943 504.172 268.985 471.017 268.557C440.182 268.165 427.834 304.817 427.834 304.817C427.834 304.817 413.558 288.364 399.89 295.895C386.257 303.425 378.512 324.945 378.512 324.945C378.512 324.945 363.166 333.225 357.599 341.469Z" fill="#E1EBFF"/>
<path d="M1515.91 157.137H1280.69C1280.69 157.137 1302.88 136.473 1312.73 136.473C1322.58 136.473 1351.42 67.1301 1388.22 70.0923C1425.01 73.0544 1444.53 124.696 1444.53 124.696C1444.53 124.696 1489.25 110.67 1515.91 157.173V157.137Z" fill="#E1EBFF"/>
<path opacity="0.15" d="M813 658H680C680 658 686.608 649.255 693.899 648.177C693.899 648.177 708.082 605.314 731.822 605.002C753.886 604.715 762.736 631.357 762.736 631.357C762.736 631.357 772.954 619.402 782.723 624.864C792.493 630.327 798.015 645.972 798.015 645.972C798.015 645.972 809.012 651.986 812.976 658H813Z" fill="#9EBDFF"/>
<path opacity="0.15" d="M345.93 111.266H0C0 111.266 -3.40354e-06 89.1744 47.6444 84.8204C47.6444 84.8204 91.1489 -11.7889 157.566 1.20179C198.929 9.26744 220.092 66.0838 220.092 66.0838C220.092 66.0838 251.355 21.4016 276.373 30.0383C301.391 38.6749 316.237 86.2836 316.237 86.2836C316.237 86.2836 342.04 98.7747 345.93 111.266Z" fill="#9EBDFF"/>
<path opacity="0.15" d="M1636 70H1478C1478 70 1492.92 54.1371 1499.55 54.1371C1506.18 54.1371 1525.52 0.804098 1550.25 3.07022C1574.98 5.33635 1588.06 45.0199 1588.06 45.0199C1588.06 45.0199 1618.09 34.2163 1636 70Z" fill="#9EBDFF"/>
<path d="M96 848.89C96 848.89 380.796 721.018 588.754 721.018C796.712 721.018 1068.48 785.614 1143.53 800.068C1340.64 838.077 1594.39 848.855 1594.39 848.855H96V848.89Z" fill="#E6EFFF"/>
<path d="M1848.83 848.891C1848.83 848.891 1693.58 763.166 1518.21 763.166C1395.8 763.166 1220.14 797.677 1054.65 817.092C991.657 824.479 663.678 848.891 663.678 848.891H1848.83Z" fill="#E1EBFF"/>
<path d="M1126.26 768.805C1126.26 768.805 1147.89 816.985 1112.49 816.985C1077.08 816.985 1100.03 767.163 1100.03 767.163C1100.03 767.163 1091.82 763.559 1101.35 736.685C1110.84 709.812 1115.09 709.812 1119.05 709.812C1124.05 709.812 1128.69 721.446 1125.26 739.29C1125.26 739.29 1137.72 761.56 1126.26 768.769V768.805Z" fill="#D4E3FF"/>
<path d="M1109.35 848.925L1112.77 776.37L1116.16 848.925H1109.35Z" fill="#D4E3FF"/>
<path d="M1111.38 806.813L1124.23 791.788L1114.13 808.776L1111.38 806.813Z" fill="#D4E3FF"/>
<path d="M135.901 762.31C135.901 762.31 159.277 814.415 121.019 814.415C82.7606 814.415 107.564 760.561 107.564 760.561C107.564 760.561 98.7134 756.671 108.992 727.62C119.27 698.57 123.874 698.57 128.121 698.57C133.51 698.57 138.542 711.168 134.866 730.476C134.866 730.476 148.321 754.565 135.937 762.381L135.901 762.31Z" fill="#D4E3FF"/>
<path d="M117.63 848.926L121.306 770.482L124.982 848.926H117.63Z" fill="#D4E3FF"/>
<path d="M119.804 803.387L133.722 787.113L122.802 805.528L119.804 803.387Z" fill="#D4E3FF"/>
<g opacity="0.34">
<path d="M640.753 766.593C640.753 766.593 651.852 762.203 660.631 777.513C669.661 793.216 658.347 803.566 649.354 797.392C649.354 797.392 642.323 812.167 628.226 808.67C614.129 805.136 611.845 793.895 611.845 793.895C611.845 793.895 599.354 794.787 598.997 785.436C598.64 776.122 607.812 767.842 607.812 767.842C607.812 767.842 608.347 744.608 623.479 744.787C638.611 744.965 640.717 766.628 640.717 766.628L640.753 766.593Z" fill="#D4E3FF"/>
<path d="M630.438 848.927L627.298 779.798L624.122 848.927H630.438Z" fill="#D4E3FF"/>
<path d="M628.654 804.923L637.933 786.365L625.941 803.317L628.654 804.923Z" fill="#D4E3FF"/>
</g>
<path d="M1552.67 768.805C1552.67 768.805 1531.04 816.985 1566.44 816.985C1601.85 816.985 1578.9 767.163 1578.9 767.163C1578.9 767.163 1587.11 763.559 1577.58 736.685C1568.09 709.812 1563.84 709.812 1559.88 709.812C1554.88 709.812 1550.24 721.446 1553.67 739.29C1553.67 739.29 1541.21 761.56 1552.67 768.769V768.805Z" fill="#D4E3FF"/>
<path d="M1569.55 848.925L1566.16 776.37L1562.74 848.925H1569.55Z" fill="#D4E3FF"/>
<path d="M1567.55 806.813L1554.67 791.788L1564.77 808.776L1567.55 806.813Z" fill="#D4E3FF"/>
<path d="M1533.08 766.593C1533.08 766.593 1544.18 762.203 1552.96 777.513C1561.99 793.216 1550.68 803.566 1541.68 797.392C1541.68 797.392 1534.65 812.167 1520.56 808.67C1506.46 805.136 1504.18 793.895 1504.18 793.895C1504.18 793.895 1491.68 794.787 1491.33 785.436C1490.97 776.122 1500.14 767.842 1500.14 767.842C1500.14 767.842 1500.68 744.608 1515.81 744.787C1530.94 744.965 1533.05 766.628 1533.05 766.628L1533.08 766.593Z" fill="#D4E3FF"/>
<path d="M1522.77 848.927L1519.59 779.798L1516.45 848.927H1522.77Z" fill="#D4E3FF"/>
<path d="M1520.95 804.923L1530.26 786.365L1518.24 803.317L1520.95 804.923Z" fill="#D4E3FF"/>
<path d="M533.374 848.509H450.142C450.142 848.509 450.329 836.128 458.528 832.836C466.706 829.544 471.571 835.962 471.571 835.962C471.571 835.962 474.905 813.188 490.164 813.188C505.423 813.188 512.711 832.836 512.711 832.836C512.711 832.836 516.127 826.894 524.595 827.991C533.064 829.089 533.395 848.509 533.395 848.509H533.374Z" fill="#D4E3FF"/>
<path d="M1256.37 848.509C1256.37 848.509 1253.83 836.604 1248.73 834.761C1243.64 832.919 1240.54 838.26 1240.54 838.26C1240.54 838.26 1239.33 826.894 1232.11 823.477C1224.88 820.082 1219.46 827.039 1219.46 827.039C1219.46 827.039 1213.91 812.608 1204.01 812.608C1194.12 812.608 1189.11 833.726 1189.11 833.726C1189.11 833.726 1183.27 827.432 1177.26 830.993C1171.26 834.554 1171.26 848.488 1171.26 848.488H1256.37V848.509Z" fill="#D4E3FF"/>
<path d="M465.051 848.509H388.3C388.3 848.509 390.826 837.681 395.919 836.915C401.013 836.149 403.373 841.159 403.373 841.159C403.373 841.159 403.145 826.066 412.649 823.498C422.152 820.931 430.123 834.265 430.123 834.265C430.123 834.265 436.086 826.666 444.202 827.142C452.318 827.639 454.389 840.186 454.389 840.186C454.389 840.186 461.78 835.818 465.051 848.489V848.509Z" fill="#D4E3FF"/>
<path d="M1176.76 848.509H1129.6C1129.6 848.509 1129.7 841.49 1134.34 839.627C1138.98 837.763 1141.73 841.407 1141.73 841.407C1141.73 841.407 1143.62 828.509 1152.27 828.509C1160.92 828.509 1165.04 839.647 1165.04 839.647C1165.04 839.647 1166.97 836.273 1171.77 836.915C1176.58 837.536 1176.76 848.53 1176.76 848.53V848.509Z" fill="#D4E3FF"/>
<path d="M534.206 848.509H581.37C581.37 848.509 581.267 841.49 576.629 839.627C571.991 837.763 569.237 841.407 569.237 841.407C569.237 841.407 567.353 828.509 558.699 828.509C550.044 828.509 545.924 839.647 545.924 839.647C545.924 839.647 543.999 836.273 539.195 836.915C534.392 837.536 534.206 848.53 534.206 848.53V848.509Z" fill="#D4E3FF"/>
</svg>
