<svg width="120" height="36" viewBox="0 0 120 36" fill="none" xmlns="http://www.w3.org/2000/svg">
<path d="M3.6083 6.61346V14.6754C4.46464 13.1672 6.85909 12.3383 8.39719 12.3383C12.654 12.3383 15.8161 14.9415 15.8161 19.9677C15.8161 24.7583 12.593 27.5972 8.30851 27.5972C6.53484 27.5972 4.73069 27.0067 3.59721 25.2629L3.35888 27.2728H0V6.61346H3.6083ZM3.84386 19.9788C3.84386 22.6125 5.78381 24.2676 8.07017 24.2676C10.3565 24.2676 12.2106 22.521 12.2106 19.9788C12.2106 17.3479 10.3759 15.7205 8.07017 15.7205C7.50996 15.711 6.95361 15.8149 6.43455 16.0259C5.91549 16.237 5.44443 16.5508 5.04967 16.9485C4.65491 17.3463 4.3446 17.8197 4.13739 18.3405C3.93018 18.8612 3.83033 19.4185 3.84386 19.9788Z" fill="#2F314A"/>
<path d="M22.0818 6.58264V14.675C23.3843 12.9895 24.9806 12.4849 26.6351 12.4849C30.7728 12.4849 32.6074 15.296 32.6074 19.5848V27.2725H29.0046V19.6236C29.0046 16.9622 27.619 15.8394 25.679 15.8394C23.5506 15.8394 22.0763 17.6414 22.0763 19.8316V27.2836H18.4735V6.58264H22.0818Z" fill="#2F314A"/>
<path d="M47.2101 12.7041H50.6688V27.2837H47.2683L47.0937 25.1546C46.2623 26.8706 43.9898 27.6968 42.363 27.7273C38.0481 27.7578 34.8555 25.0963 34.8555 19.9648C34.8555 14.9386 38.1811 12.3048 42.4545 12.3353C44.3944 12.3353 46.2651 13.253 47.0937 14.7029L47.2101 12.7041ZM38.4582 19.9786C38.4582 22.751 40.3815 24.4143 42.776 24.4143C48.4517 24.4143 48.4517 15.5734 42.776 15.5734C40.3815 15.5734 38.4582 17.2008 38.4582 19.9786Z" fill="#2F314A"/>
<path d="M64.4422 27.2838V19.6655C64.4422 17.4476 63.2311 15.762 60.9253 15.762C58.7082 15.762 57.2006 17.625 57.2006 19.8429V27.2949H53.6228V12.6848H56.8459L57.0815 14.667C58.5614 13.2171 60.0385 12.4796 61.8703 12.4796C65.3013 12.4796 68.0505 15.0523 68.0505 19.635V27.2949L64.4422 27.2838Z" fill="#2F314A"/>
<path d="M82.4449 12.7042V14.4203L75.7355 23.7353H82.5059V27.2839H70.2371V25.7646L77.2126 15.9756H70.7692V12.7042H82.4449Z" fill="#2F314A"/>
<path d="M88.3561 12.7042V20.3337C88.3561 22.5515 89.5699 24.2371 91.8757 24.2371C94.0928 24.2371 95.6004 22.3741 95.6004 20.1562V12.7042H99.1754V27.3144H95.9551L95.7168 25.3321C94.2092 26.8098 92.8207 27.5195 90.781 27.5195C87.2919 27.5195 84.7506 24.8886 84.7506 20.3641V12.7042H88.3561Z" fill="#2F314A"/>
<path d="M119.883 15.9559C119.452 12.1744 117.834 8.6269 115.261 5.82346C112.688 3.02002 109.292 1.10506 105.562 0.353909C101.832 -0.397241 97.9605 0.054115 94.5033 1.64308C91.0461 3.23205 88.1817 5.87677 86.3218 9.19699H87.8322C88.382 8.25106 89.0234 7.36149 89.7472 6.54111C91.0658 5.03104 92.6895 3.81781 94.5111 2.98145C96.0543 2.29711 97.7131 1.91142 99.3998 1.8448C102.058 1.77001 104.667 2.5771 106.819 4.14028C108.383 5.23773 109.684 6.66957 110.627 8.33203C111.458 9.85126 111.946 11.6145 111.688 13.3527C111.411 15.2739 110.227 16.8763 108.703 18.0296C109.323 18.4862 109.868 19.0361 110.319 19.6597C111.372 21.2 111.8 23.083 111.516 24.9271C111.233 26.8405 110.428 28.6389 109.191 30.1252C107.663 31.9222 105.605 33.1887 103.313 33.7431C101.135 34.3114 99.8432 34.4556 96.6894 33.6655H96.6673C94.6386 33.0916 93.6825 32.8588 90.9721 30.591L88.9684 30.4025C91.5675 33.1375 94.9602 34.986 98.6668 35.6869C102.373 36.3877 106.207 35.9053 109.624 34.3079C113.042 32.7105 115.871 30.0789 117.712 26.7852C119.553 23.4915 120.312 19.7022 119.883 15.9531V15.9559Z" fill="#F45803"/>
</svg>
