<svg width="54" height="111" viewBox="0 0 54 111" fill="none" xmlns="http://www.w3.org/2000/svg">
<path d="M37.577 17.0661C34.7721 14.7165 31.3737 13.5458 28.0648 13.9766C28.8615 10.6271 29.0242 6.78153 28.2762 2.94413C28.0892 1.99292 27.9103 1.0417 27.7559 0.0742188C26.8778 0.927876 26.0242 1.79779 25.2193 2.68397C21.6746 6.5295 20.8859 11.9035 22.764 16.4482C23.0485 17.1636 23.3494 17.8709 23.6583 18.5701C24.3575 18.8059 25.0485 19.0579 25.7396 19.3181C30.1705 20.9441 34.2599 21.123 37.4063 19.7571C38.1461 19.4319 38.8941 19.123 39.642 18.8466C38.9672 18.2449 38.2762 17.6514 37.577 17.0742V17.0661Z" fill="white"/>
<path d="M30.8293 23.0739C27.6667 21.3259 24.1789 20.8218 21.0895 21.8543C21.1708 18.4722 20.5285 14.7487 19.0082 11.2039C18.6261 10.3259 18.2602 9.43972 17.9025 8.54541C17.2439 9.52915 16.6179 10.5129 16.0326 11.5129C13.4472 15.8543 13.7561 21.1958 16.4716 25.2283C16.8943 25.8625 17.3171 26.4885 17.7561 27.1064C18.4797 27.2039 19.2033 27.3177 19.9187 27.4397C24.5285 28.1714 28.5204 27.5779 31.2358 25.6836C31.8699 25.2365 32.5203 24.8056 33.1789 24.3991C32.4065 23.9438 31.626 23.5047 30.8374 23.0739H30.8293Z" fill="white"/>
<path d="M25.5855 30.1063C22.179 29.0169 18.6994 29.1877 15.8945 30.773C15.3335 27.4885 13.9676 24.0088 11.7888 20.8787C11.2441 20.1064 10.7156 19.3177 10.1953 18.521C9.75627 19.586 9.34977 20.6673 8.97578 21.7405C7.32538 26.4234 8.62619 31.5454 12.0246 34.9356C12.553 35.4722 13.0896 36.0007 13.6262 36.5128C14.3498 36.4722 15.0733 36.4397 15.7969 36.4153C20.4392 36.2446 24.2197 34.9031 26.4798 32.5535C27.0083 32.0007 27.553 31.4641 28.1058 30.9437C27.2684 30.6511 26.4311 30.3665 25.5774 30.0982L25.5855 30.1063Z" fill="white"/>
<path d="M21.8452 37.9032C18.3168 37.4967 14.9509 38.3341 12.4875 40.4235C11.3412 37.3341 9.36557 34.2203 6.65013 31.6024C5.97533 30.952 5.30867 30.2934 4.65013 29.6187C4.42249 30.7406 4.22737 31.8626 4.05663 32.9764C3.30867 37.8463 5.49566 42.5861 9.43874 45.2284C10.0485 45.6512 10.6664 46.0577 11.2924 46.456C11.9997 46.269 12.6989 46.0983 13.4062 45.9357C17.9347 44.8625 21.3981 42.8138 23.1786 40.1064C23.5932 39.4642 24.0241 38.8463 24.4631 38.2365C23.5932 38.1146 22.7152 38.0008 21.8371 37.9032H21.8452Z" fill="white"/>
<path d="M19.6019 46.2203C16.0653 46.513 12.9108 47.9845 10.8539 50.5048C9.18724 47.7081 6.69131 45.0577 3.56123 43.0252C2.78075 42.5211 2.01652 42.0089 1.24416 41.4805C1.21977 42.6187 1.2279 43.7488 1.26042 44.8788C1.3905 49.7731 4.35798 53.9927 8.69944 55.8138C9.37423 56.1065 10.0572 56.3829 10.732 56.6593C11.3905 56.3422 12.0572 56.0333 12.7238 55.7325C16.984 53.7894 20.0409 51.1065 21.3011 48.1065C21.5937 47.3992 21.9027 46.7081 22.2279 46.0252C21.3498 46.074 20.4718 46.139 19.5937 46.2122L19.6019 46.2203Z" fill="white"/>
<path d="M18.8618 54.7894C15.439 55.7731 12.5935 57.8381 11.0081 60.7243C8.87804 58.3015 5.9756 56.1959 2.54471 54.8137C1.69106 54.4723 0.845528 54.1227 0 53.7568C0.178862 54.8788 0.373983 55.9845 0.609755 57.082C1.58536 61.8625 5.23577 65.4316 9.813 66.3747C10.5284 66.5292 11.2439 66.6755 11.9593 66.8056C12.5528 66.3584 13.1545 65.9276 13.7561 65.5048C17.6016 62.7487 20.1382 59.5048 20.8618 56.3178C21.0244 55.5698 21.2114 54.83 21.4146 54.0983C20.561 54.3178 19.7073 54.5536 18.8618 54.7975V54.7894Z" fill="white"/>
<path d="M19.6261 63.3584C16.431 65.0007 14.0001 67.5941 12.9513 70.7567C10.431 68.7811 7.20332 67.2771 3.59357 66.5941C2.69926 66.4315 1.80495 66.2446 0.910645 66.0576C1.2765 67.1226 1.66674 68.1795 2.0895 69.212C3.88625 73.7323 8.11389 76.5454 12.7887 76.5779C13.5204 76.5941 14.2521 76.5941 14.9757 76.5779C15.4797 76.025 15.9919 75.4722 16.5041 74.9356C19.7887 71.4478 21.7074 67.7486 21.8618 64.4641C21.8944 63.6917 21.9431 62.9275 22.0163 62.1714C21.2196 62.5535 20.4228 62.9519 19.6261 63.3665V63.3584Z" fill="white"/>
<path d="M21.8863 71.6672C19.0408 73.9192 17.1139 76.968 16.6668 80.3013C13.8213 78.8379 10.3741 77.9842 6.69931 78.0168C5.78874 78.0249 4.87817 78.0249 3.95947 78.0168C4.51232 79.0005 5.08955 79.968 5.68305 80.9111C8.26841 85.033 12.9676 87.0005 17.5936 86.1143C18.3172 85.9842 19.0408 85.846 19.7562 85.6916C20.1464 85.0412 20.5448 84.3989 20.9513 83.7647C23.5286 79.659 24.7155 75.6103 24.2765 72.3257C24.1708 71.5534 24.0814 70.7891 24.0164 70.0249C23.3009 70.5615 22.5855 71.1143 21.8782 71.6753L21.8863 71.6672Z" fill="white"/>
<path d="M25.6502 79.456C23.2763 82.2446 21.9511 85.6511 22.1706 89.0576C19.0649 88.1552 15.4958 87.9763 11.8779 88.7324C10.9836 88.9194 10.0811 89.0983 9.17871 89.2609C9.91042 90.1308 10.6584 90.9763 11.4389 91.7975C14.7885 95.391 19.8616 96.4397 24.2763 94.6674C24.9673 94.3991 25.6584 94.1145 26.3413 93.83C26.5933 93.1064 26.8616 92.391 27.1299 91.6755C28.8454 87.0901 29.2031 82.8219 28.138 79.643C27.886 78.895 27.6502 78.1552 27.4389 77.4072C26.8291 78.082 26.2356 78.7649 25.6502 79.4641V79.456Z" fill="white"/>
<path d="M30.9106 86.4721C29.122 89.716 28.5041 93.3583 29.4553 96.716C26.1464 96.4152 22.561 96.9274 19.1139 98.3745C18.2602 98.7404 17.4065 99.09 16.5366 99.4233C17.4391 100.147 18.3659 100.846 19.3008 101.513C23.3821 104.448 28.7236 104.521 32.7886 101.903C33.4309 101.496 34.0651 101.09 34.6911 100.667C34.7805 99.8949 34.8862 99.1306 35.0081 98.3664C35.7155 93.4558 35.1464 89.1225 33.4228 86.1632C33.0163 85.4721 32.626 84.7729 32.2683 84.0737C31.8049 84.8623 31.3496 85.6591 30.9025 86.464L30.9106 86.4721Z" fill="white"/>
<path d="M37.6826 92.4641C36.5932 96.0494 36.7802 99.8055 38.5282 102.984C35.081 103.31 31.577 104.513 28.4225 106.619C27.642 107.147 26.8534 107.659 26.0566 108.163C27.1217 108.708 28.2111 109.228 29.3168 109.724C34.1054 111.879 39.6013 110.944 43.1786 107.553C43.7395 107.033 44.3005 106.497 44.8452 105.96C44.7558 105.171 44.6826 104.383 44.6176 103.594C44.1704 98.5453 42.5688 94.3177 40.1623 91.6917C39.5932 91.0738 39.0485 90.4559 38.5282 89.8218C38.2355 90.6998 37.9509 91.586 37.6826 92.4722V92.4641Z" fill="white"/>
<path d="M32.6011 10.2447C32.6742 10.3016 33.9913 6.92761 37.7393 3.99265C41.3246 1.08208 47.3409 -1.38133 53.1539 0.886961C53.2108 0.886961 50.9181 3.04143 47.5279 5.09834C44.0401 7.21216 39.4385 9.22029 32.6011 10.2365V10.2447Z" fill="white"/>
<path d="M52.1704 109.139C52.1054 109.139 52.0322 109.139 51.9671 109.114C29.9509 103.464 14.5444 86.8785 10.7477 64.7485C6.92654 42.4883 16.0241 20.342 33.9346 8.31764C34.3086 8.06561 34.8127 8.16317 35.0647 8.53716C35.3168 8.91114 35.2192 9.41521 34.8452 9.66724C17.4631 21.3339 8.63386 42.8461 12.3493 64.4721C16.0404 85.9517 30.9997 102.049 52.3736 107.537C52.8127 107.651 53.0728 108.09 52.959 108.529C52.8614 108.895 52.5363 109.139 52.1704 109.139Z" fill="white"/>
</svg>
