<svg width="54" height="111" viewBox="0 0 54 111" fill="none" xmlns="http://www.w3.org/2000/svg">
<path d="M15.8048 17.0661C18.6097 14.7165 22.008 13.5458 25.317 13.9766C24.5202 10.6271 24.3576 6.78153 25.1056 2.94413C25.2926 1.99292 25.4714 1.0417 25.6259 0.0742188C26.504 0.927876 27.3576 1.79779 28.1625 2.68397C31.7072 6.5295 32.4958 11.9035 30.6178 16.4482C30.3332 17.1636 30.0324 17.8709 29.7235 18.5701C29.0243 18.8059 28.3332 19.0579 27.6422 19.3181C23.2113 20.9441 19.1219 21.123 15.9755 19.7571C15.2357 19.4319 14.4877 19.123 13.7397 18.8466C14.4145 18.2449 15.1056 17.6514 15.8048 17.0742V17.0661Z" fill="white"/>
<path d="M22.5532 23.0739C25.7158 21.3259 29.2036 20.8218 32.293 21.8543C32.2117 18.4722 32.854 14.7487 34.3743 11.2039C34.7565 10.3259 35.1223 9.43972 35.48 8.54541C36.1386 9.52915 36.7646 10.5129 37.3499 11.5129C39.9353 15.8543 39.6264 21.1958 36.9109 25.2283C36.4882 25.8625 36.0654 26.4885 35.6264 27.1064C34.9028 27.2039 34.1792 27.3177 33.4638 27.4397C28.854 28.1714 24.8621 27.5779 22.1467 25.6836C21.5126 25.2365 20.8621 24.8056 20.2036 24.3991C20.976 23.9438 21.7565 23.5047 22.5451 23.0739H22.5532Z" fill="white"/>
<path d="M27.7972 30.1063C31.2037 29.0169 34.6833 29.1877 37.4882 30.773C38.0492 27.4885 39.415 24.0088 41.5939 20.8787C42.1386 20.1064 42.6671 19.3177 43.1874 18.521C43.6264 19.586 44.0329 20.6673 44.4069 21.7405C46.0573 26.4234 44.7565 31.5454 41.3581 34.9356C40.8297 35.4722 40.2931 36.0007 39.7565 36.5128C39.0329 36.4722 38.3094 36.4397 37.5858 36.4153C32.9435 36.2446 29.163 34.9031 26.9029 32.5535C26.3744 32.0007 25.8297 31.4641 25.2769 30.9437C26.1143 30.6511 26.9517 30.3665 27.8053 30.0982L27.7972 30.1063Z" fill="white"/>
<path d="M31.5368 37.9032C35.0653 37.4967 38.4311 38.3341 40.8945 40.4235C42.0409 37.3341 44.0165 34.2203 46.7319 31.6024C47.4067 30.952 48.0734 30.2934 48.7319 29.6187C48.9596 30.7406 49.1547 31.8626 49.3254 32.9764C50.0734 37.8463 47.8864 42.5861 43.9433 45.2284C43.3336 45.6512 42.7157 46.0577 42.0897 46.456C41.3823 46.269 40.6832 46.0983 39.9758 45.9357C35.4474 44.8625 31.984 42.8138 30.2035 40.1064C29.7889 39.4642 29.358 38.8463 28.9189 38.2365C29.7889 38.1146 30.6669 38.0008 31.545 37.9032H31.5368Z" fill="white"/>
<path d="M33.7803 46.2203C37.3169 46.513 40.4714 47.9845 42.5283 50.5048C44.1949 47.7081 46.6909 45.0577 49.8209 43.0252C50.6014 42.5211 51.3657 42.0089 52.138 41.4805C52.1624 42.6187 52.1543 43.7488 52.1217 44.8788C51.9917 49.7731 49.0242 53.9927 44.6827 55.8138C44.0079 56.1065 43.325 56.3829 42.6502 56.6593C41.9917 56.3422 41.325 56.0333 40.6584 55.7325C36.3982 53.7894 33.3413 51.1065 32.0811 48.1065C31.7884 47.3992 31.4795 46.7081 31.1543 46.0252C32.0323 46.074 32.9104 46.139 33.7884 46.2122L33.7803 46.2203Z" fill="white"/>
<path d="M34.5201 54.7894C37.9429 55.7731 40.7884 57.8381 42.3738 60.7243C44.5039 58.3015 47.4063 56.1959 50.8372 54.8137C51.6908 54.4723 52.5364 54.1227 53.3819 53.7568C53.203 54.8788 53.0079 55.9845 52.7721 57.082C51.7965 61.8625 48.1461 65.4316 43.5689 66.3747C42.8535 66.5292 42.138 66.6755 41.4226 66.8056C40.8291 66.3584 40.2274 65.9276 39.6258 65.5048C35.7803 62.7487 33.2437 59.5048 32.5201 56.3178C32.3575 55.5698 32.1705 54.83 31.9673 54.0983C32.8209 54.3178 33.6746 54.5536 34.5201 54.7975V54.7894Z" fill="white"/>
<path d="M33.756 63.3584C36.9511 65.0007 39.382 67.5941 40.4308 70.7567C42.9511 68.7811 46.1787 67.2771 49.7885 66.5941C50.6828 66.4315 51.5771 66.2446 52.4714 66.0576C52.1055 67.1226 51.7153 68.1795 51.2925 69.212C49.4958 73.7323 45.2682 76.5454 40.5934 76.5779C39.8617 76.5941 39.1299 76.5941 38.4064 76.5779C37.9023 76.025 37.3901 75.4722 36.8779 74.9356C33.5934 71.4478 31.6828 67.7486 31.5202 64.4641C31.4877 63.6917 31.4389 62.9275 31.3657 62.1714C32.1625 62.5535 32.9592 62.9519 33.756 63.3665V63.3584Z" fill="white"/>
<path d="M31.4963 71.6672C34.3419 73.9192 36.2687 76.968 36.7158 80.3013C39.5614 78.8379 43.0085 77.9842 46.6833 78.0168C47.5939 78.0249 48.5045 78.0249 49.4232 78.0168C48.8703 79.0005 48.2931 79.968 47.6996 80.9111C45.1142 85.033 40.415 87.0005 35.789 86.1143C35.0654 85.9842 34.3419 85.846 33.6264 85.6916C33.2362 85.0412 32.8378 84.3989 32.4313 83.7647C29.8541 79.659 28.6671 75.6103 29.1061 72.3257C29.2118 71.5534 29.3012 70.7891 29.3663 70.0249C30.0817 70.5615 30.7971 71.1143 31.5045 71.6753L31.4963 71.6672Z" fill="white"/>
<path d="M27.7318 79.456C30.1058 82.2446 31.431 85.6511 31.2114 89.0576C34.3171 88.1552 37.8862 87.9763 41.5041 88.7324C42.3984 88.9194 43.3009 89.0983 44.2033 89.2609C43.4716 90.1308 42.7236 90.9763 41.9432 91.7975C38.5936 95.391 33.5204 96.4397 29.1058 94.6674C28.4147 94.3991 27.7237 94.1145 27.0407 93.83C26.7887 93.1064 26.5204 92.391 26.2521 91.6755C24.5367 87.0901 24.1789 82.8219 25.244 79.643C25.496 78.895 25.7318 78.1552 25.9432 77.4072C26.5529 78.082 27.1464 78.7649 27.7318 79.4641V79.456Z" fill="white"/>
<path d="M22.4713 86.4721C24.2599 89.716 24.8778 93.3583 23.9266 96.716C27.2355 96.4152 30.8209 96.9274 34.2681 98.3745C35.1217 98.7404 35.9754 99.09 36.8453 99.4233C35.9428 100.147 35.016 100.846 34.0811 101.513C29.9998 104.448 24.6583 104.521 20.5933 101.903C19.951 101.496 19.3168 101.09 18.6908 100.667C18.6014 99.8949 18.4957 99.1306 18.3738 98.3664C17.6664 93.4558 18.2355 89.1225 19.9591 86.1632C20.3656 85.4721 20.7559 84.7729 21.1136 84.0737C21.577 84.8623 22.0323 85.6591 22.4794 86.464L22.4713 86.4721Z" fill="white"/>
<path d="M15.7075 92.4641C16.7969 96.0494 16.61 99.8055 14.862 102.984C18.3091 103.31 21.8132 104.513 24.9677 106.619C25.7482 107.147 26.5368 107.659 27.3335 108.163C26.2685 108.708 25.179 109.228 24.0734 109.724C19.2847 111.879 13.7888 110.944 10.2116 107.553C9.65061 107.033 9.08964 106.497 8.54492 105.96C8.63435 105.171 8.70752 104.383 8.77256 103.594C9.21972 98.5453 10.8213 94.3177 13.2278 91.6917C13.7969 91.0738 14.3417 90.4559 14.862 89.8218C15.1547 90.6998 15.4392 91.586 15.7075 92.4722V92.4641Z" fill="white"/>
<path d="M20.7809 10.2447C20.7077 10.3016 19.3907 6.92761 15.6427 3.99265C12.0573 1.08208 6.04109 -1.38133 0.228087 0.886961C0.171176 0.886961 2.46386 3.04143 5.8541 5.09834C9.3419 7.21216 13.9435 9.22029 20.7809 10.2365V10.2447Z" fill="white"/>
<path d="M1.21179 109.139C0.845942 109.139 0.520738 108.895 0.423177 108.529C0.309356 108.09 0.577649 107.651 1.00854 107.538C22.3825 102.05 37.35 85.9522 41.0329 64.4726C44.7483 42.8466 35.9191 21.3344 18.5451 9.66773C18.1711 9.41569 18.0736 8.91163 18.3256 8.53765C18.5776 8.16366 19.0817 8.0661 19.4557 8.31813C37.3581 20.3425 46.4638 42.4888 42.6427 64.749C38.8459 86.879 23.4313 103.464 1.42318 109.115C1.35814 109.131 1.28497 109.139 1.21993 109.139H1.21179Z" fill="white"/>
</svg>
